<?xml version="1.0" encoding="UTF-8" standalone="no"?>
<svg width="365px" height="105px" viewBox="0 0 365 105" version="1.1" xmlns="http://www.w3.org/2000/svg" xmlns:xlink="http://www.w3.org/1999/xlink" xmlns:sketch="http://www.bohemiancoding.com/sketch/ns">
    <!-- Generator: Sketch 3.2.2 (9983) - http://www.bohemiancoding.com/sketch -->
    <title>tinysplash-logo</title>
    <desc>Created with Sketch.</desc>
    <defs></defs>
    <g id="Page-1" stroke="none" stroke-width="1" fill="none" fill-rule="evenodd" sketch:type="MSPage">
        <path d="M91.5149656,66.2743987 C90.0841293,67.6074756 88.6438146,68.8646696 87.194,70.046 C85.1419897,71.7180084 83.1090101,73.1809937 81.095,74.435 C79.0809899,75.6890063 77.276008,76.4679985 75.68,76.772 C73.3999886,77.2280023 71.5380072,77.0760038 70.094,76.316 C68.6499928,75.5559962 67.7950013,74.3210085 67.529,72.611 C67.2629987,70.9009914 67.6429949,68.7160133 68.669,66.056 C69.6950051,63.3959867 71.5379867,60.3560171 74.198,56.936 C77.390016,52.9079799 79.7269926,49.9630093 81.209,48.101 C82.6910074,46.2389907 83.0140042,45.1180019 82.178,44.738 C81.4939966,44.3579981 80.0690108,44.8899928 77.903,46.334 C75.7369892,47.7780072 73.2860137,49.696988 70.55,52.091 C67.8139863,54.485012 65.0590139,57.1449854 62.285,60.071 C59.5109861,62.9970146 57.2120091,65.7519871 55.388,68.336 C55.2359992,68.6400015 55.0840008,68.8299996 54.932,68.906 L51.968,73.124 C51.0559954,74.2640057 49.9540065,75.1949964 48.662,75.917 C47.3699935,76.6390036 46.1920053,77 45.128,77 L41.822,77 C40.7579947,77 40.1500008,76.6200038 39.998,75.86 C39.8459992,75.0999962 40.1879958,74.1880053 41.024,73.124 L43.57941,69.5006575 C43.3548272,69.6842001 43.1300239,69.8659809 42.905,70.046 C40.8149895,71.7180084 38.7820099,73.1809937 36.806,74.435 C34.8299901,75.6890063 33.0060084,76.4679985 31.334,76.772 C29.5099909,77.1520019 28.0280057,77.1330021 26.888,76.715 C25.7479943,76.2969979 24.9120027,75.5940049 24.38,74.606 C23.8479973,73.6179951 23.6009998,72.421007 23.639,71.015 C23.6770002,69.608993 23.999997,68.0700084 24.608,66.398 C21.8719863,68.9060125 19.0980141,71.1479901 16.286,73.124 C13.4739859,75.1000099 10.966011,76.3159977 8.762,76.772 C6.4819886,77.2280023 4.73400608,77.1140034 3.518,76.43 C2.30199392,75.7459966 1.52300171,74.6820072 1.181,73.238 C0.83899829,71.7939928 0.89599772,70.1030097 1.352,68.165 C1.80800228,66.2269903 2.6059943,64.2320103 3.746,62.18 C4.27800266,61.2679954 5.39899145,59.5390127 7.109,56.993 C8.81900855,54.4469873 10.8519882,51.5210165 13.208,48.215 C15.5640118,44.9089835 18.0719867,41.3750188 20.732,37.613 C23.3920133,33.8509812 25.9379878,30.2600171 28.37,26.84 C23.2019742,27.0680011 18.6990192,27.2579992 14.861,27.41 C11.0229808,27.5620008 8.49600608,27.638 7.28,27.638 C5.30399012,27.7140004 4.20200114,27.2200053 3.974,26.156 C3.74599886,25.0919947 4.04999582,23.9330063 4.886,22.679 C5.72200418,21.4249937 6.95699183,20.2470055 8.591,19.145 C10.2250082,18.0429945 11.9159913,17.492 13.664,17.492 C15.4880091,17.492 18.3379806,17.4730002 22.214,17.435 C26.0900194,17.3969998 30.4599757,17.3400004 35.324,17.264 L40.226,10.652 C41.0620042,9.58799468 42.1259935,8.69500361 43.418,7.973 C44.7100065,7.25099639 45.8879947,6.89 46.952,6.89 L50.258,6.89 C51.3220053,6.89 51.948999,7.25099639 52.139,7.973 C52.3290009,8.69500361 52.0060042,9.58799468 51.17,10.652 C51.0179992,10.8040008 50.5050044,11.4689941 49.631,12.647 C48.7569956,13.8250059 47.6740065,15.2879913 46.382,17.036 L85.0870035,16.5244137 C86.6070111,16.4484133 88.1269987,16.9219966 88.393,17.606 C88.6590013,18.2900034 87.88,20.057 87.88,20.057 C87.88,20.057 86.3410063,21.9189956 85.087,22.793 C83.8329937,23.6670044 82.9853376,24.1367456 81.46533,24.3647467 L39.568,26.13 C37.2119882,29.3980163 35.6850135,31.8939814 32.987,35.618 C30.2889865,39.3420186 27.743012,42.8759833 25.349,46.22 C22.954988,49.5640167 20.8460091,52.5659867 19.022,55.226 C17.1979909,57.8860133 15.9440034,59.7479947 15.26,60.812 C13.8919932,63.0920114 13.1320008,64.7449949 12.98,65.771 C12.8279992,66.7970051 13.0179973,67.3859992 13.55,67.538 C14.3100038,67.7660011 15.5829911,67.2720061 17.369,66.056 C19.1550089,64.8399939 21.1309892,63.2630097 23.297,61.325 C25.4630108,59.3869903 27.6289892,57.2780114 29.795,54.998 C31.9610108,52.7179886 33.8039924,50.6280095 35.324,48.728 C36.6920068,46.7519901 37.9459943,45.0420072 39.086,43.598 C40.2260057,42.1539928 40.9859981,41.1660027 41.366,40.634 C42.2020042,39.4939943 43.2659935,38.5820034 44.558,37.898 C45.8500065,37.2139966 47.0279947,36.872 48.092,36.872 L51.398,36.872 C52.4620053,36.872 53.088999,37.2329964 53.279,37.955 C53.4690009,38.6770036 53.1460042,39.5699947 52.31,40.634 C52.0059985,41.0140019 51.2840057,41.9259928 50.144,43.37 C49.0039943,44.8140072 47.731007,46.5429899 46.325,48.557 C44.918993,50.5710101 43.4560076,52.6609892 41.936,54.827 C40.4159924,56.9930108 39.0860057,58.9879909 37.946,60.812 C36.5019928,63.0920114 35.7040008,64.7449949 35.552,65.771 C35.3999992,66.7970051 35.627997,67.3859992 36.236,67.538 C36.9960038,67.7660011 38.2689911,67.2720061 40.055,66.056 C41.8410089,64.8399939 43.8169892,63.2440099 45.983,61.268 C48.1490108,59.2919901 50.333989,57.1640114 52.538,54.884 C54.742011,52.6039886 56.641992,50.5140095 58.238,48.614 C58.3888829,48.428298 58.5366637,48.2527879 58.6813424,48.0874697 L58.6813424,48.0874697 L63.938,40.634 C64.7740042,39.4939943 65.8379935,38.5820034 67.13,37.898 C68.4220065,37.2139966 69.5999947,36.872 70.664,36.872 L73.97,36.872 C75.0340053,36.872 75.660999,37.2329964 75.851,37.955 C76.0410009,38.6770036 75.7180042,39.5699947 74.882,40.634 L70.778,46.448 C73.6660144,44.0159878 76.5349857,41.9450086 79.385,40.235 C82.2350142,38.5249915 84.9899867,37.4800019 87.65,37.1 C89.6260099,36.7959985 91.2599935,36.8719977 92.552,37.328 C93.8440065,37.7840023 94.5279996,38.7529926 94.604,40.235 C94.6800004,41.7170074 94.015007,43.8069865 92.609,46.505 C91.202993,49.2030135 88.7900171,52.6799787 85.37,56.936 C83.6219913,58.9880103 82.349004,60.6979932 81.551,62.066 C80.752996,63.4340068 80.2210013,64.516996 79.955,65.315 C79.6889987,66.113004 79.6319992,66.6639985 79.784,66.968 C79.9360008,67.2720015 80.1639985,67.4619996 80.468,67.538 C81.2280038,67.7660011 82.5009911,67.2720061 84.287,66.056 C86.0730089,64.8399939 88.0489892,63.2440099 90.215,61.268 C92.3810108,59.2919901 94.565989,57.1640114 96.77,54.884 C98.974011,52.6039886 100.835992,50.5140095 102.356,48.614 C102.376993,48.5900083 102.397919,48.5661867 102.418779,48.5425352 C103.56969,46.9183207 104.650757,45.4221517 105.662,44.054 C106.954006,42.3059913 107.827998,41.1660027 108.284,40.634 C109.120004,39.4939943 110.183994,38.5820034 111.476,37.898 C112.768006,37.2139966 113.945995,36.872 115.01,36.872 L118.316,36.872 C119.380005,36.872 120.006999,37.2329964 120.197,37.955 C120.387001,38.6770036 120.064004,39.5699947 119.228,40.634 C118.923998,41.0140019 118.202006,41.9259928 117.062,43.37 C115.921994,44.8140072 114.649007,46.5429899 113.243,48.557 C111.836993,50.5710101 110.374008,52.6609892 108.854,54.827 C107.333992,56.9930108 106.004006,58.9879909 104.864,60.812 C103.419993,63.0920114 102.622001,64.7449949 102.47,65.771 C102.317999,66.7970051 102.545997,67.3859992 103.154,67.538 C103.838003,67.7660011 105.015992,67.3290055 106.688,66.227 C108.360008,65.1249945 110.22199,63.6810089 112.274,61.895 C114.32601,60.1089911 116.415989,58.114011 118.544,55.91 C120.672011,53.705989 122.533992,51.6540095 124.13,49.754 C125.878009,47.2459875 127.340994,45.1750082 128.519,43.541 C129.697006,41.9069918 130.437998,40.9380015 130.742,40.634 C131.578004,39.4939943 132.641994,38.5820034 133.934,37.898 C135.226006,37.2139966 136.403995,36.872 137.468,36.872 L140.774,36.872 C141.838005,36.872 142.445999,37.2329964 142.598,37.955 C142.750001,38.6770036 142.408004,39.5699947 141.572,40.634 C141.343999,40.8620011 140.603006,41.8309915 139.349,43.541 C138.094994,45.2510086 136.44201,47.5499856 134.39,50.438 C132.33799,53.3260144 129.963013,56.7269804 127.265,60.641 C124.566987,64.5550196 121.698015,68.7919772 118.658,73.352 C115.617985,77.9120228 112.445017,82.7189747 109.139,87.773 C105.832983,92.8270253 102.546016,97.9759738 99.278,103.22 C98.669997,104.284005 97.8720049,104.702001 96.884,104.474 C95.8959951,104.245999 94.9840042,103.676005 94.148,102.764 C93.3119958,101.851995 92.7230017,100.693007 92.381,99.287 C92.0389983,97.880993 92.2099966,96.4940068 92.894,95.126 C93.1980015,94.3659962 93.9959935,93.0360095 95.288,91.136 C96.5800065,89.2359905 98.1569907,87.0130127 100.019,84.467 C101.881009,81.9209873 103.951989,79.147015 106.232,76.145 C108.512011,73.142985 110.791989,70.1980144 113.072,67.31 C110.487987,69.6660118 107.885013,71.7369911 105.263,73.523 C102.640987,75.3090089 100.30401,76.3919981 98.252,76.772 C96.047989,77.2280023 94.3380061,77.1140034 93.122,76.43 C91.9059939,75.7459966 91.1270017,74.6820072 90.785,73.238 C90.4429983,71.7939928 90.4999977,70.1030097 90.956,68.165 C91.1028913,67.5407119 91.2892129,66.9105121 91.5149656,66.2743987 Z M56.6131096,31.6211789 C56.6131096,32.7949221 56.2078948,33.7869998 55.397453,34.5974416 C54.5870112,35.4078833 53.6228794,35.8130982 52.5050287,35.8130982 C51.387178,35.8130982 50.4090733,35.4078833 49.5706852,34.5974416 C48.7322972,33.7869998 48.3131094,32.7949221 48.3131094,31.6211789 C48.3131094,30.5033281 48.7322972,29.5391963 49.5706852,28.7287546 C50.4090733,27.9183128 51.387178,27.513098 52.5050287,27.513098 C53.6228794,27.513098 54.5870112,27.9183128 55.397453,28.7287546 C56.2078948,29.5391963 56.6131096,30.5033281 56.6131096,31.6211789 Z M145.334,44.852 C147.23401,42.4199878 149.855983,40.5200068 153.2,39.152 C156.544017,37.7839932 160.419978,37.1 164.828,37.1 C166.956011,37.1 168.627994,37.4419966 169.844,38.126 C171.060006,38.8100034 171.098006,40.1779897 169.958,42.23 C169.273997,43.4460061 168.229007,44.7379932 166.823,46.106 C165.416993,47.4740068 163.840009,48.461997 162.092,49.07 C161.255996,49.2980011 160.344005,49.4689994 159.356,49.583 C158.367995,49.6970006 157.494004,49.6780008 156.734,49.526 C155.973996,49.3739992 155.442002,49.1080019 155.138,48.728 C154.833998,48.3479981 154.947997,47.8160034 155.48,47.132 C155.784002,46.7519981 156.163998,46.3150025 156.62,45.821 C157.076002,45.3269975 157.493998,44.8140027 157.874,44.282 C158.254002,43.7499973 158.538999,43.2750021 158.729,42.857 C158.919001,42.4389979 158.900001,42.0780015 158.672,41.774 C157.607995,41.6219992 156.316008,41.8879966 154.796,42.572 C153.275992,43.2560034 152.098004,44.2439935 151.262,45.536 C150.501996,46.6760057 150.368998,47.6829956 150.863,48.557 C151.357002,49.4310044 152.135995,50.2479962 153.2,51.008 C154.264005,51.7680038 155.460993,52.5849956 156.791,53.459 C158.121007,54.3330044 159.241995,55.3399943 160.154,56.48 C161.066005,57.6200057 161.616999,58.987992 161.807,60.584 C161.997001,62.180008 161.484006,64.1179886 160.268,66.398 C159.279995,68.2220091 157.988008,69.836993 156.392,71.243 C154.795992,72.649007 153.04801,73.7889956 151.148,74.663 C149.247991,75.5370044 147.215011,76.1449983 145.049,76.487 C142.882989,76.8290017 140.736011,76.9240008 138.608,76.772 C135.567985,76.5439989 133.383007,75.7080072 132.053,74.264 C130.722993,72.8199928 130.039,71.2430086 130.001,69.533 C129.963,67.8229915 130.418995,66.170008 131.369,64.574 C132.319005,62.977992 133.515993,61.8380034 134.96,61.154 C135.720004,60.7739981 136.688994,60.584 137.867,60.584 C139.045006,60.584 140.089995,60.6979989 141.002,60.926 C141.914005,61.1540011 142.597998,61.4959977 143.054,61.952 C143.510002,62.4080023 143.396003,62.939997 142.712,63.548 C142.179997,64.0800027 141.572003,64.744996 140.888,65.543 C140.203997,66.341004 139.653002,67.1769956 139.235,68.051 C138.816998,68.9250044 138.608,69.7229964 138.608,70.445 C138.608,71.1670036 139.025996,71.6799985 139.862,71.984 C140.698004,72.3640019 141.685994,72.5160004 142.826,72.44 C143.966006,72.3639996 145.105994,72.0790025 146.246,71.585 C147.386006,71.0909975 148.449995,70.4070044 149.438,69.533 C150.426005,68.6589956 151.185997,67.5380068 151.718,66.17 C152.250003,64.8019932 152.212003,63.6240049 151.604,62.636 C150.995997,61.6479951 150.179005,60.7170044 149.153,59.843 C148.126995,58.9689956 147.025006,58.0950044 145.847,57.221 C144.668994,56.3469956 143.757003,55.3590055 143.111,54.257 C142.464997,53.1549945 142.255999,51.8440076 142.484,50.324 C142.712001,48.8039924 143.661992,46.9800106 145.334,44.852 L145.334,44.852 Z M171.896,73.808 C171.211997,72.7439947 170.832,71.6040061 170.756,70.388 C167.411983,75.3280247 163.954018,80.5719723 160.382,86.12 C156.809982,91.6680277 153.200018,97.3679707 149.552,103.22 C148.943997,104.284005 148.127005,104.702001 147.101,104.474 C146.074995,104.245999 145.144004,103.676005 144.308,102.764 C143.471996,101.851995 142.883002,100.693007 142.541,99.287 C142.198998,97.880993 142.369997,96.4940068 143.054,95.126 C143.282001,94.6699977 143.984994,93.5490089 145.163,91.763 C146.341006,89.9769911 147.822991,87.7730131 149.609,85.151 C151.395009,82.5289869 153.389989,79.6410158 155.594,76.487 C157.798011,73.3329842 160.058988,70.1220163 162.377,66.854 C164.695012,63.5859837 166.936989,60.3940156 169.103,57.278 C171.269011,54.1619844 173.206991,51.3880122 174.917,48.956 C176.627009,46.5239878 178.032994,44.5480076 179.135,43.028 C180.237006,41.5079924 180.826,40.7100004 180.902,40.634 C181.738004,39.4939943 182.801994,38.5820034 184.094,37.898 C185.386006,37.2139966 186.563995,36.872 187.628,36.872 L190.934,36.872 C191.998005,36.872 192.624999,37.2329964 192.815,37.955 C193.005001,38.6770036 192.682004,39.5699947 191.846,40.634 L189.908,43.142 C193.93602,40.4059863 197.678983,38.5250051 201.137,37.499 C204.595017,36.4729949 207.197991,36.8339913 208.946,38.582 C210.086006,39.7980061 210.599001,41.4699894 210.485,43.598 C210.370999,45.7260106 209.744006,48.0819871 208.604,50.666 C207.463994,53.2500129 205.88701,55.9479859 203.873,58.76 C201.85899,61.5720141 199.598013,64.2699871 197.09,66.854 C194.505987,69.4380129 191.922013,71.5089922 189.338,73.067 C186.753987,74.6250078 184.322011,75.6699973 182.042,76.202 C179.761989,76.7340027 177.729009,76.7910021 175.943,76.373 C174.156991,75.9549979 172.808005,75.1000065 171.896,73.808 L171.896,73.808 Z M269.217239,73.7398369 C266.716396,75.424396 263.408067,76.9021002 260.385742,76.9999992 C255.106686,77.1709983 255.097006,77.0950025 253.919,76.601 C252.740994,76.1069975 251.905002,75.3280053 251.411,74.264 C250.916998,73.1999947 250.726999,71.9080076 250.841,70.388 C250.955001,68.8679924 251.353997,67.2340087 252.038,65.486 C250.669993,66.7780065 249.188008,68.1079932 247.592,69.476 C245.995992,70.8440068 244.362008,72.0789945 242.69,73.181 C241.017992,74.2830055 239.327009,75.1949964 237.617,75.917 C235.906991,76.6390036 234.292008,77 232.772,77 C230.643989,77 229.010006,76.2780072 227.87,74.834 C226.729994,73.3899928 226.273999,71.4330124 226.502,68.963 C226.534788,68.6077922 226.58408,68.2439407 226.649874,67.8714453 C225.790214,68.6228104 224.923924,69.3476606 224.051,70.046 C221.96099,71.7180084 219.92801,73.1809937 217.952,74.435 C215.97599,75.6890063 214.152008,76.4679985 212.48,76.772 C210.275989,77.2280023 208.547006,77.1140034 207.293,76.43 C206.038994,75.7459966 205.241002,74.6820072 204.899,73.238 C204.556998,71.7939928 204.632998,70.1030097 205.127,68.165 C205.621002,66.2269903 206.437994,64.2320103 207.578,62.18 C208.034002,61.4199962 208.926993,60.0330101 210.257,58.019 C211.587007,56.0049899 213.201991,53.6110139 215.102,50.837 C217.002009,48.0629861 219.091989,45.0230165 221.372,41.717 C223.652011,38.4109835 225.969988,35.0860167 228.326,31.742 C230.682012,28.3979833 232.980989,25.130016 235.223,21.938 C237.465011,18.745984 239.478991,15.8960125 241.265,13.388 C243.051009,10.8799875 244.532994,8.80900817 245.711,7.175 C246.889006,5.54099183 247.591999,4.57200152 247.82,4.268 C248.732005,3.1279943 249.833994,2.19700361 251.126,1.475 C252.418006,0.75299639 253.595995,0.392 254.66,0.392 L257.966,0.392 C259.030005,0.392 259.637999,0.7719962 259.79,1.532 C259.942001,2.2920038 259.600004,3.20399468 258.764,4.268 C258.611999,4.49600114 257.624009,5.88298727 255.8,8.429 C253.975991,10.9750127 251.715013,14.1289812 249.017,17.891 C246.318987,21.6530188 243.374016,25.7949774 240.182,30.317 C236.989984,34.8390226 233.950014,39.1519795 231.062,43.256 C228.173986,47.3600205 225.628011,51.007984 223.424,54.2 C221.219989,57.392016 219.776003,59.5959939 219.092,60.812 C217.647993,63.0920114 216.831001,64.7449949 216.641,65.771 C216.450999,66.7970051 216.659997,67.3859992 217.268,67.538 C218.028004,67.7660011 219.319991,67.2720061 221.144,66.056 C222.968009,64.8399939 224.962989,63.2440099 227.129,61.268 C228.690921,59.8430894 230.262705,58.3391561 231.844377,56.7561763 L231.844377,56.7561763 C233.481777,54.4890717 235.538977,52.1170228 238.016,49.64 C238.698026,48.9728004 239.374266,48.3330809 240.044719,47.720841 C240.51168,47.2217264 240.944064,46.836221 241.341873,46.5643217 C243.6472,44.559273 245.882565,42.8865076 248.048,41.546 C251.240016,39.5699901 254.203986,38.2210036 256.94,37.499 C259.676014,36.7769964 262.107989,36.6249979 264.236,37.043 C266.364011,37.4610021 268.111993,38.2779939 269.48,39.494 C270.316004,38.6579958 271.265995,38.0120023 272.33,37.556 C273.394005,37.0999977 274.381995,36.872 275.294,36.872 L278.6,36.872 C279.664005,36.872 280.290999,37.2329964 280.481,37.955 C280.671001,38.6770036 280.348004,39.5699947 279.512,40.634 C279.207998,41.0140019 278.486006,41.9259928 277.346,43.37 C276.205994,44.8140072 274.933007,46.5429899 273.527,48.557 C272.120993,50.5710101 270.658008,52.6609892 269.138,54.827 C267.617992,56.9930108 266.326005,58.9879909 265.262,60.812 C263.817993,63.0920114 262.103819,66.0838574 261.913818,67.1098625 C261.723817,68.1358677 262.094726,68.9630005 263.519287,68.9630005 C264.008096,68.9630005 266.169442,68.0811833 267.02124,67.1098625 C267.850421,66.1643319 268.463533,65.0358275 269.245001,64.1549241 C270.150053,62.7768577 271.25971,61.7765583 272.574,61.154 C273.334004,60.7739981 274.302994,60.584 275.481,60.584 C276.659006,60.584 277.703995,60.6979989 278.616,60.926 C279.528005,61.1540011 280.211998,61.4959977 280.668,61.952 C281.124002,62.4080023 281.010003,62.939997 280.326,63.548 C279.793997,64.0800027 279.186003,64.744996 278.502,65.543 C277.817997,66.341004 277.267002,67.1769956 276.849,68.051 C276.430998,68.9250044 276.222,69.7229964 276.222,70.445 C276.222,71.1670036 276.639996,71.6799985 277.476,71.984 C278.312004,72.3640019 279.299994,72.5160004 280.44,72.44 C281.580006,72.3639996 282.719994,72.0790025 283.86,71.585 C285.000006,71.0909975 286.063995,70.4070044 287.052,69.533 C288.040005,68.6589956 288.799997,67.5380068 289.332,66.17 C289.864003,64.8019932 289.826003,63.6240049 289.218,62.636 C288.609997,61.6479951 287.793005,60.7170044 286.767,59.843 C285.740995,58.9689956 284.639006,58.0950044 283.461,57.221 C282.282994,56.3469956 281.371003,55.3590055 280.725,54.257 C280.078997,53.1549945 279.869999,51.8440076 280.098,50.324 C280.326001,48.8039924 281.275992,46.9800106 282.948,44.852 C284.84801,42.4199878 287.469983,40.5200068 290.814,39.152 C294.158017,37.7839932 298.033978,37.1 302.442,37.1 C304.570011,37.1 306.241994,37.4419966 307.458,38.126 C308.674006,38.8100034 308.712006,40.1779897 307.572,42.23 C306.887997,43.4460061 305.843007,44.7379932 304.437,46.106 C303.030993,47.4740068 301.454009,48.461997 299.706,49.07 C298.869996,49.2980011 297.958005,49.4689994 296.97,49.583 C295.981995,49.6970006 295.108004,49.6780008 294.348,49.526 C293.587996,49.3739992 293.056002,49.1080019 292.752,48.728 C292.447998,48.3479981 292.561997,47.8160034 293.094,47.132 C293.398002,46.7519981 293.777998,46.3150025 294.234,45.821 C294.690002,45.3269975 295.107998,44.8140027 295.488,44.282 C295.868002,43.7499973 296.152999,43.2750021 296.343,42.857 C296.533001,42.4389979 296.514001,42.0780015 296.286,41.774 C295.221995,41.6219992 293.930008,41.8879966 292.41,42.572 C290.889992,43.2560034 289.712004,44.2439935 288.876,45.536 C288.115996,46.6760057 287.982998,47.6829956 288.477,48.557 C288.971002,49.4310044 289.749995,50.2479962 290.814,51.008 C291.878005,51.7680038 293.074993,52.5849956 294.405,53.459 C295.735007,54.3330044 296.855995,55.3399943 297.768,56.48 C298.680005,57.6200057 299.230999,58.987992 299.421,60.584 C299.611001,62.180008 299.098006,64.1179886 297.882,66.398 C296.893995,68.2220091 295.602008,69.836993 294.006,71.243 C292.409992,72.649007 290.66201,73.7889956 288.762,74.663 C286.861991,75.5370044 284.829011,76.1449983 282.663,76.487 C280.496989,76.8290017 278.350011,76.9240008 276.222,76.772 C273.181985,76.5439989 270.997007,75.7080072 269.667,74.264 C269.507827,74.0911836 269.357907,73.9164626 269.217239,73.7398369 Z M181.928,54.77 C179.95199,57.2780125 178.432005,59.4629907 177.368,61.325 C176.303995,63.1870093 175.601002,64.7829933 175.259,66.113 C174.916998,67.4430067 174.840999,68.5259958 175.031,69.362 C175.221001,70.1980042 175.581997,70.8059981 176.114,71.186 C177.482007,72.0980046 179.552986,71.8130074 182.327,70.331 C185.101014,68.8489926 187.931986,66.208019 190.82,62.408 C192.264007,60.5079905 193.593994,58.6270093 194.81,56.765 C196.026006,54.9029907 196.994996,53.1550082 197.717,51.521 C198.439004,49.8869918 198.856999,48.4810059 198.971,47.303 C199.085001,46.1249941 198.838003,45.2700027 198.23,44.738 C197.621997,44.2059973 196.710006,44.0729987 195.494,44.339 C194.277994,44.6050013 192.910008,45.1939954 191.39,46.106 C189.869992,47.0180046 188.274008,48.2149926 186.602,49.697 C184.929992,51.1790074 183.372007,52.8699905 181.928,54.77 Z M243.488,54.2 C241.663991,56.2520103 240.277005,58.2849899 239.327,60.299 C238.376995,62.3130101 237.921,63.9849933 237.959,65.315 C237.997,66.6450066 238.566994,67.4239989 239.669,67.652 C240.771006,67.8800011 242.499988,67.2340076 244.856,65.714 C246.528008,64.7259951 248.35199,63.3010093 250.328,61.439 C252.30401,59.5769907 254.26099,57.6010104 256.199,55.511 C258.13701,53.4209896 259.960991,51.3500103 261.671,49.298 C263.381009,47.2459897 264.767995,45.5360068 265.832,44.168 L267.086,42.572 C265.337991,41.5839951 263.381011,41.3179977 261.215,41.774 C259.048989,42.2300023 256.883011,43.1039935 254.717,44.396 C252.550989,45.6880065 250.48001,47.2269911 248.504,49.013 C246.52799,50.7990089 244.856007,52.5279916 243.488,54.2 Z M345.114,37.1 C347.09001,36.7959985 348.723994,36.8719977 350.016,37.328 C351.308006,37.7840023 351.992,38.7529926 352.068,40.235 C352.144,41.7170074 351.479007,43.8069865 350.073,46.505 C348.666993,49.2030135 346.254017,52.6799787 342.834,56.936 C341.085991,58.9880103 339.794004,60.6979932 338.958,62.066 C338.121996,63.4340068 337.571001,64.516996 337.305,65.315 C337.038999,66.113004 336.981999,66.6639985 337.134,66.968 C337.286001,67.2720015 337.513998,67.4619996 337.818,67.538 C338.578004,67.7660011 339.850991,67.2720061 341.637,66.056 C343.423009,64.8399939 345.398989,63.2440099 347.565,61.268 C349.731011,59.2919901 351.915989,57.1640114 354.12,54.884 C356.324011,52.6039886 358.223992,50.5140095 359.82,48.614 C360.808005,47.3979939 361.662996,46.6190017 362.385,46.277 C363.107004,45.9349983 363.638998,45.9349983 363.981,46.277 C364.323002,46.6190017 364.456,47.1699962 364.38,47.93 C364.304,48.6900038 363.962003,49.5259954 363.354,50.438 C362.821997,51.1980038 361.948006,52.3379924 360.732,53.858 C359.515994,55.3780076 358.053009,57.0499909 356.343,58.874 C354.632991,60.6980091 352.75201,62.5979901 350.7,64.574 C348.64799,66.5500099 346.59601,68.3739916 344.544,70.046 C342.49199,71.7180084 340.45901,73.1809937 338.445,74.435 C336.43099,75.6890063 334.626008,76.4679985 333.03,76.772 C330.825989,77.2280023 329.002007,77.0760038 327.558,76.316 C326.113993,75.5559962 325.240002,74.3210085 324.936,72.611 C324.631998,70.9009914 324.992995,68.7160133 326.019,66.056 C327.045005,63.3959867 328.925986,60.3560171 331.662,56.936 C334.778016,52.9079799 337.095992,49.9630093 338.616,48.101 C340.136008,46.2389907 340.478004,45.1180019 339.642,44.738 C338.957997,44.4339985 337.64701,44.8899939 335.709,46.106 C333.77099,47.3220061 331.586012,48.9749896 329.154,51.065 C326.721988,53.1550104 324.195013,55.5299867 321.573,58.19 C318.950987,60.8500133 316.61401,63.4339875 314.562,65.942 L309.546,73.124 C308.633995,74.2640057 307.532006,75.1949964 306.24,75.917 C304.947994,76.6390036 303.770005,77 302.706,77 L299.4,77 C298.335995,77 297.728001,76.6200038 297.576,75.86 C297.423999,75.0999962 297.765996,74.1880053 298.602,73.124 L346.71,4.268 C347.546004,3.1279943 348.609994,2.19700361 349.902,1.475 C351.194006,0.75299639 352.371995,0.392 353.436,0.392 L356.742,0.392 C357.806005,0.392 358.432999,0.7719962 358.623,1.532 C358.813001,2.2920038 358.490004,3.20399468 357.654,4.268 L328.128,46.448 C331.016014,44.0159878 333.903986,41.9450086 336.792,40.235 C339.680014,38.5249915 342.453987,37.4800019 345.114,37.1 L345.114,37.1 Z" id="tinysplash" fill="#F7F7EC" sketch:type="MSShapeGroup"></path>
    </g>
</svg>